<svg width="622" height="238" viewBox="0 0 622 238" fill="none" xmlns="http://www.w3.org/2000/svg">
<path d="M37.5 191.855C31.25 191.855 25.7487 190.749 20.9961 188.535C16.2435 186.257 12.5651 182.936 9.96094 178.574C7.35677 174.212 6.05469 168.971 6.05469 162.852C6.05469 156.471 7.51953 151.165 10.4492 146.934C13.444 142.702 17.806 139.414 23.5352 137.07C29.3294 134.661 36.6536 133.034 45.5078 132.188L70.1172 130.039V123.301C70.1172 119.785 69.2383 116.66 67.4805 113.926C65.7227 111.126 63.2161 108.945 59.9609 107.383C56.7057 105.82 52.7995 105.039 48.2422 105.039C44.2057 105.039 40.625 105.755 37.5 107.188C34.375 108.62 31.7383 110.638 29.5898 113.242C27.5065 115.846 25.944 119.069 24.9023 122.91L8.30078 119.395C9.66797 113.145 12.1419 107.806 15.7227 103.379C19.3685 98.8867 23.9258 95.5013 29.3945 93.2227C34.9284 90.8789 41.2109 89.707 48.2422 89.707C56.3802 89.707 63.4115 91.1068 69.3359 93.9062C75.2604 96.7057 79.7852 100.645 82.9102 105.723C86.1003 110.801 87.6953 116.66 87.6953 123.301V190H70.1172V174.082H69.9219C67.513 179.355 63.4766 183.652 57.8125 186.973C52.2135 190.228 45.4427 191.855 37.5 191.855ZM42.2852 177.402C48.0143 177.402 52.9622 176.1 57.1289 173.496C61.3607 170.827 64.5833 167.246 66.7969 162.754C69.0104 158.197 70.1172 153.151 70.1172 147.617V143.027L46.2891 145.273C38.6068 145.924 32.8451 147.65 29.0039 150.449C25.2279 153.249 23.3398 157.057 23.3398 161.875C23.3398 165.065 24.0885 167.832 25.5859 170.176C27.1484 172.52 29.362 174.31 32.2266 175.547C35.1562 176.784 38.5091 177.402 42.2852 177.402ZM186.625 91.7578V190H168.559V172.715H168.266C165.206 178.835 160.876 183.62 155.277 187.07C149.678 190.456 143.103 192.148 135.551 192.148C128.585 192.148 122.595 190.684 117.582 187.754C112.569 184.759 108.728 180.43 106.059 174.766C103.389 169.036 102.055 162.103 102.055 153.965V91.7578H120.023V151.914C120.023 159.661 121.846 165.651 125.492 169.883C129.203 174.115 134.411 176.23 141.117 176.23C146.846 176.23 151.762 174.668 155.863 171.543C160.03 168.418 163.188 164.219 165.336 158.945C167.484 153.672 168.559 147.878 168.559 141.562V91.7578H186.625ZM240.242 191.172C233.471 191.172 228.035 190.033 223.934 187.754C219.897 185.41 216.967 182.253 215.145 178.281C213.387 174.245 212.508 169.492 212.508 164.023V107.285H195.711V91.8555H212.508V64.8047H230.574V91.8555H252.84V107.285H230.574V163.047C230.574 166.888 231.681 169.915 233.895 172.129C236.173 174.342 239.884 175.449 245.027 175.449C247.436 175.449 249.975 175.221 252.645 174.766V189.414C248.543 190.586 244.409 191.172 240.242 191.172ZM305.969 192.148C296.919 192.148 288.749 190.033 281.457 185.801C274.165 181.569 268.469 175.579 264.367 167.832C260.266 160.02 258.215 151.068 258.215 140.977C258.215 130.755 260.233 121.771 264.27 114.023C268.371 106.276 274.068 100.254 281.359 95.957C288.651 91.6602 296.887 89.5117 306.066 89.5117C315.246 89.5117 323.449 91.6602 330.676 95.957C337.967 100.189 343.632 106.178 347.668 113.926C351.77 121.673 353.82 130.69 353.82 140.977C353.82 151.133 351.737 160.085 347.57 167.832C343.469 175.579 337.772 181.569 330.48 185.801C323.254 190.033 315.083 192.148 305.969 192.148ZM305.969 177.012C311.633 177.012 316.678 175.579 321.105 172.715C325.533 169.785 329.048 165.618 331.652 160.215C334.257 154.811 335.559 148.398 335.559 140.977C335.559 133.49 334.257 127.044 331.652 121.641C329.113 116.172 325.598 112.005 321.105 109.141C316.678 106.211 311.633 104.746 305.969 104.746C300.305 104.746 295.227 106.211 290.734 109.141C286.307 112.005 282.824 116.172 280.285 121.641C277.746 127.044 276.477 133.49 276.477 140.977C276.477 148.333 277.746 154.746 280.285 160.215C282.889 165.618 286.405 169.785 290.832 172.715C295.324 175.579 300.37 177.012 305.969 177.012ZM409.293 192.246C400.374 192.246 392.268 190.228 384.977 186.191C377.75 182.155 372.021 176.296 367.789 168.613C363.622 160.931 361.539 151.784 361.539 141.172C361.539 130.495 363.59 121.315 367.691 113.633C371.858 105.885 377.522 99.9609 384.684 95.8594C391.91 91.6927 400.081 89.6094 409.195 89.6094C416.747 89.6094 423.518 91.1393 429.508 94.1992C435.497 97.2591 440.348 101.458 444.059 106.797C447.77 112.135 450.276 118.158 451.578 124.863L435.367 127.402C434.391 122.975 432.73 119.069 430.387 115.684C428.043 112.298 425.113 109.629 421.598 107.676C418.147 105.723 414.111 104.746 409.488 104.746C403.564 104.746 398.355 106.211 393.863 109.141C389.371 112.07 385.855 116.302 383.316 121.836C380.842 127.305 379.605 133.652 379.605 140.879C379.605 148.236 380.842 154.648 383.316 160.117C385.855 165.521 389.371 169.688 393.863 172.617C398.421 175.547 403.661 177.012 409.586 177.012C414.078 177.012 418.049 176.1 421.5 174.277C425.016 172.389 427.913 169.85 430.191 166.66C432.47 163.405 434.228 159.661 435.465 155.43L451.676 158.066C450.309 164.512 447.802 170.306 444.156 175.449C440.51 180.592 435.693 184.694 429.703 187.754C423.779 190.749 416.975 192.246 409.293 192.246ZM490.547 191.855C484.297 191.855 478.796 190.749 474.043 188.535C469.29 186.257 465.612 182.936 463.008 178.574C460.404 174.212 459.102 168.971 459.102 162.852C459.102 156.471 460.566 151.165 463.496 146.934C466.491 142.702 470.853 139.414 476.582 137.07C482.376 134.661 489.701 133.034 498.555 132.188L523.164 130.039V123.301C523.164 119.785 522.285 116.66 520.527 113.926C518.77 111.126 516.263 108.945 513.008 107.383C509.753 105.82 505.846 105.039 501.289 105.039C497.253 105.039 493.672 105.755 490.547 107.188C487.422 108.62 484.785 110.638 482.637 113.242C480.553 115.846 478.991 119.069 477.949 122.91L461.348 119.395C462.715 113.145 465.189 107.806 468.77 103.379C472.415 98.8867 476.973 95.5013 482.441 93.2227C487.975 90.8789 494.258 89.707 501.289 89.707C509.427 89.707 516.458 91.1068 522.383 93.9062C528.307 96.7057 532.832 100.645 535.957 105.723C539.147 110.801 540.742 116.66 540.742 123.301V190H523.164V174.082H522.969C520.56 179.355 516.523 183.652 510.859 186.973C505.26 190.228 498.49 191.855 490.547 191.855ZM495.332 177.402C501.061 177.402 506.009 176.1 510.176 173.496C514.408 170.827 517.63 167.246 519.844 162.754C522.057 158.197 523.164 153.151 523.164 147.617V143.027L499.336 145.273C491.654 145.924 485.892 147.65 482.051 150.449C478.275 153.249 476.387 157.057 476.387 161.875C476.387 165.065 477.135 167.832 478.633 170.176C480.195 172.52 482.409 174.31 485.273 175.547C488.203 176.784 491.556 177.402 495.332 177.402ZM574.926 190H556.859V49.1797H574.926V190ZM610.77 190H592.703V49.1797H610.77V190Z" fill="white"/>
<ellipse cx="306" cy="141.5" rx="39" ry="40.5" fill="white"/>
</svg>
