<svg width="1000" height="1000" viewBox="0 0 1000 1000" fill="none" xmlns="http://www.w3.org/2000/svg">
<rect width="1000" height="1000" rx="100" fill="#4309E4"/>
<path d="M498.8 694.4C459.6 694.4 425.8 686 397.4 669.2C369.4 652.4 348 628.6 333.2 597.8C318.8 567 311.6 530.8 311.6 489.2C311.6 448 319 411.8 333.8 380.6C349 349.4 370.6 325.4 398.6 308.6C426.6 291.4 460 282.8 498.8 282.8C537.6 282.8 571 291.4 599 308.6C627.4 325.4 649.2 349.4 664.4 380.6C679.6 411.8 687.2 448 687.2 489.2C687.2 530.4 679.6 566.6 664.4 597.8C649.6 628.6 628 652.4 599.6 669.2C571.6 686 538 694.4 498.8 694.4ZM498.2 653C527 653 552.4 646.6 574.4 633.8C596.4 621 613.4 602.4 625.4 578C637.4 553.2 643.4 523.8 643.4 489.8C643.4 455.8 637.2 426.4 624.8 401.6C612.8 376.4 595.8 357.2 573.8 344C552.2 330.4 527 323.6 498.2 323.6C469.4 323.6 444.2 330.4 422.6 344C401.4 357.2 385 376.4 373.4 401.6C361.8 426.4 356 455.8 356 489.8C356 541 368.8 581 394.4 609.8C420 638.6 454.6 653 498.2 653ZM435.8 468.2C428.2 468.2 421.2 465.4 414.8 459.8C408.8 453.4 405.8 445.4 405.8 435.8C405.8 426.2 408.8 418.2 414.8 411.8C420.4 406.6 427.4 404 435.8 404C444.6 404 451.8 406.6 457.4 411.8C463.8 419 467 427 467 435.8C467 444.6 463.8 452.6 457.4 459.8C451 465.4 443.8 468.2 435.8 468.2ZM559.4 468.2C551 468.2 544 465.4 538.4 459.8C532 453.4 528.8 445.4 528.8 435.8C528.8 426.2 532 418.2 538.4 411.8C543.6 406.6 550.6 404 559.4 404C568.2 404 575.4 406.6 581 411.8C587.4 419 590.6 427 590.6 435.8C590.6 444.6 587.4 452.6 581 459.8C574.6 465.4 567.4 468.2 559.4 468.2ZM498.2 596C477.4 596 460.8 591.6 448.4 582.8C436.4 574 428 564.8 423.2 555.2C418.4 545.6 416 539.6 416 537.2L442.4 521.6C442.4 522.8 444.2 526.4 447.8 532.4C451.8 538 457.8 543.4 465.8 548.6C474.2 553.4 484.8 555.8 497.6 555.8H498.2C511 555.8 521.4 553.4 529.4 548.6C537.8 543.4 543.8 538 547.4 532.4C551.4 526.4 553.4 522.8 553.4 521.6L580.4 537.2C580.4 539.6 578 545.6 573.2 555.2C568.4 564.8 559.8 574 547.4 582.8C535.4 591.6 519 596 498.2 596Z" fill="white"/>
</svg>
